<?xml version="1.0" standalone="no"?>
<svg xmlns="http://www.w3.org/2000/svg" viewBox="0 0 1440 320">
    <path fill="#03aeb4" fill-opacity="0.8" d="M0,191L30,197.3C60,203,120,213,180,208C240,203,300,181,360,149.3C420,117,480,75,540,64C600,53,660,75,720,90.7C780,107,840,117,900,128C960,139,1020,149,1080,160C1140,171,1200,181,1260,186.7C1320,188,1380,188,1410,188L1440,191L1440,320L1410,320C1380,320,1320,320,1260,320C1200,320,1140,320,1080,320C1020,320,960,320,900,320C840,320,780,320,720,320C660,320,600,320,540,320C480,320,420,320,360,320C300,320,240,320,180,320C120,320,60,320,30,320L0,320Z"></path>
</svg>