<svg width="100%" height="100%" id="svg" viewBox="0 0 1440 600" xmlns="http://www.w3.org/2000/svg" class="transition duration-300 ease-in-out delay-150">
    <path d="M 0,600 C 0,600 0,200 0,200 C 170,211.46666666666667 340,222.93333333333334 478,215 C 616,207.06666666666666 722,179.73333333333332 877,174 C 1032,168.26666666666668 1236,184.13333333333333 1440,200 C 1440,200 1440,600 1440,600 Z" stroke="none" stroke-width="0" fill="#f8edeb" fill-opacity="0.53" class="transition-all duration-300 ease-in-out delay-150 path-0"></path>
    <path d="M 0,600 C 0,600 0,400 0,400 C 117.19999999999999,436.66666666666663 234.39999999999998,473.3333333333333 393,453 C 551.6,432.6666666666667 751.6000000000001,355.33333333333337 933,337 C 1114.3999999999999,318.66666666666663 1277.1999999999998,359.3333333333333 1440,400 C 1440,400 1440,600 1440,600 Z" stroke="none" stroke-width="0" fill="#f8edeb" fill-opacity="1" class="transition-all duration-300 ease-in-out delay-150 path-1"></path>
</svg>